<?xml version="1.0" encoding="UTF-8" standalone="no"?>
<!DOCTYPE svg PUBLIC "-//W3C//DTD SVG 1.1//EN" "http://www.w3.org/Graphics/SVG/1.1/DTD/svg11.dtd">
<svg width="100%" height="100%" viewBox="0 0 8334 4167" version="1.1" xmlns="http://www.w3.org/2000/svg" xmlns:xlink="http://www.w3.org/1999/xlink" xml:space="preserve" xmlns:serif="http://www.serif.com/" style="fill-rule:evenodd;clip-rule:evenodd;stroke-linejoin:round;stroke-miterlimit:2;">
    <g id="Layer-2" serif:id="Layer 2" transform="matrix(4.16667,0,0,4.16667,0,0)">
        <text x="824.676px" y="818.587px" style="font-family:'LucidaGrande-Bold', 'Lucida Grande', sans-serif;font-weight:600;font-size:76.741px;fill:white;">F<tspan x="881.282px 919.264px 990.783px 1059.83px 1131.35px 1198.56px 1236.54px 1305.59px 1362.75px 1404.15px 1460.53px 1519.16px 1584.64px 1650.8px 1688.79px 1755.99px 1814.62px " y="818.587px 818.587px 818.587px 818.587px 818.587px 818.587px 818.587px 818.587px 818.587px 818.587px 818.587px 818.587px 818.587px 818.587px 818.587px 818.587px 818.587px ">INANCIAL SERVICES</tspan></text>
        <g transform="matrix(1,0,0,1,363.494,502.317)">
            <path d="M0,-1.517C-14.166,5.568 -33.875,12.129 -59.127,18.193L-93.999,25.773C-112.193,30.842 -125.34,37.406 -133.418,45.482C-140.502,56.618 -144.031,67.728 -144.031,78.837C-144.031,93.998 -139.482,106.129 -130.387,115.224C-121.29,123.327 -108.166,127.355 -90.967,127.355C-62.682,127.355 -40.438,119.276 -24.257,103.097C-8.102,86.941 0,64.694 0,36.386L0,-1.517ZM24.259,184.967C3.032,196.1 -19.472,202.9 -43.208,205.435C-66.97,207.945 -87.935,209.225 -106.128,209.225C-142.516,209.225 -174.354,199.37 -201.643,179.66C-228.935,159.951 -242.58,127.355 -242.58,81.87C-242.58,39.419 -230.214,9.096 -205.435,-9.099C-180.679,-27.291 -149.101,-39.419 -110.676,-45.485C-105.631,-45.485 -99.566,-46.243 -92.483,-47.759C-85.424,-49.275 -77.321,-50.53 -68.225,-51.55C-23.76,-57.614 -1.516,-70.737 -1.516,-90.968C-1.516,-106.129 -9.356,-115.984 -25.015,-120.533C-40.698,-125.081 -55.101,-127.356 -68.225,-127.356C-82.391,-127.356 -95.018,-125.318 -106.128,-121.29C-117.263,-117.24 -125.34,-109.66 -130.387,-98.549L-231.967,-98.549C-227.94,-129.867 -213.773,-155.64 -189.515,-175.871C-162.225,-199.111 -123.326,-210.742 -72.772,-210.742C-16.18,-210.742 26.272,-201.124 54.582,-181.935C83.884,-161.704 98.549,-133.42 98.549,-97.033L98.549,40.934C98.549,81.372 91.205,112.951 76.564,135.694C61.902,158.436 44.466,174.875 24.259,184.967" style="fill:white;fill-rule:nonzero;"/>
        </g>
        <g transform="matrix(1,0,0,1,1067.26,502.317)">
            <path d="M0,-1.517C-14.167,5.568 -33.877,12.129 -59.129,18.193L-93.999,25.773C-112.193,30.842 -125.342,37.406 -133.418,45.482C-140.502,56.618 -144.032,67.728 -144.032,78.837C-144.032,93.998 -139.482,106.129 -130.387,115.224C-121.289,123.327 -108.166,127.355 -90.967,127.355C-62.681,127.355 -40.438,119.276 -24.258,103.097C-8.102,86.941 0,64.694 0,36.386L0,-1.517ZM24.257,184.967C3.03,196.1 -19.474,202.9 -43.208,205.435C-66.97,207.945 -87.935,209.225 -106.129,209.225C-142.516,209.225 -174.354,199.37 -201.644,179.66C-228.936,159.951 -242.581,127.355 -242.581,81.87C-242.581,39.419 -230.214,9.096 -205.437,-9.099C-180.679,-27.291 -149.102,-39.419 -110.675,-45.485C-105.632,-45.485 -99.566,-46.243 -92.484,-47.759C-85.424,-49.275 -77.321,-50.53 -68.225,-51.55C-23.76,-57.614 -1.516,-70.737 -1.516,-90.968C-1.516,-106.129 -9.354,-115.984 -25.015,-120.533C-40.699,-125.081 -55.103,-127.356 -68.225,-127.356C-82.394,-127.356 -95.019,-125.318 -106.129,-121.29C-117.262,-117.24 -125.342,-109.66 -130.387,-98.549L-231.967,-98.549C-227.941,-129.867 -213.773,-155.64 -189.516,-175.871C-162.226,-199.111 -123.328,-210.742 -72.775,-210.742C-16.181,-210.742 26.271,-201.124 54.581,-181.935C83.886,-161.704 98.548,-133.42 98.548,-97.033L98.548,40.934C98.548,81.372 91.205,112.951 76.564,135.694C61.901,158.436 44.466,174.875 24.257,184.967" style="fill:white;fill-rule:nonzero;"/>
        </g>
        <g transform="matrix(1,0,0,1,1287.1,585.704)">
            <path d="M0,-353.259L0,-136.452L128.87,-285.033L256.226,-285.033L112.192,-130.388L257.743,118.258L130.388,118.258L56.096,-18.194C40.937,-45.484 27.787,-57.093 16.678,-53.067C5.544,-49.014 0,-42.95 0,-34.871L0,118.258L-106.128,118.258L-106.128,-403.291L-51.548,-403.291C-37.406,-403.291 -25.276,-398.222 -15.162,-388.13C-5.07,-378.013 0,-366.384 0,-353.259Z" style="fill:white;fill-rule:nonzero;"/>
        </g>
        <g transform="matrix(1,0,0,1,1763.91,502.317)">
            <path d="M0,-1.517C-14.164,5.568 -33.873,12.129 -59.126,18.193L-93.999,25.773C-112.191,30.842 -125.34,37.406 -133.415,45.482C-140.5,56.618 -144.029,67.728 -144.029,78.837C-144.029,93.998 -139.482,106.129 -130.383,115.224C-121.287,123.327 -108.163,127.355 -90.967,127.355C-62.68,127.355 -40.438,119.276 -24.256,103.097C-8.1,86.941 0,64.694 0,36.386L0,-1.517ZM24.26,184.967C3.035,196.1 -19.473,202.9 -43.21,205.435C-66.97,207.945 -87.935,209.225 -106.127,209.225C-142.515,209.225 -174.353,199.37 -201.641,179.66C-228.933,159.951 -242.58,127.355 -242.58,81.87C-242.58,39.419 -230.216,9.096 -205.435,-9.099C-180.679,-27.291 -149.1,-39.419 -110.674,-45.485C-105.631,-45.485 -99.563,-46.243 -92.481,-47.759C-85.421,-49.275 -77.321,-50.53 -68.225,-51.55C-23.76,-57.614 -1.514,-70.737 -1.514,-90.968C-1.514,-106.129 -9.355,-115.984 -25.015,-120.533C-40.696,-125.081 -55.101,-127.356 -68.225,-127.356C-82.393,-127.356 -95.017,-125.318 -106.127,-121.29C-117.262,-117.24 -125.34,-109.66 -130.383,-98.549L-231.968,-98.549C-227.939,-129.867 -213.772,-155.64 -189.516,-175.871C-162.225,-199.111 -123.326,-210.742 -72.771,-210.742C-16.178,-210.742 26.273,-201.124 54.583,-181.935C83.886,-161.704 98.549,-133.42 98.549,-97.033L98.549,40.934C98.549,81.372 91.208,112.951 76.566,135.694C61.902,158.436 44.466,174.875 24.26,184.967" style="fill:white;fill-rule:nonzero;"/>
        </g>
        <g transform="matrix(1,0,0,1,819.18,300.671)">
            <path d="M0,68.894L24.345,0L-54.494,0C-78.75,0 -94.932,12.129 -103.01,36.387L-112.382,68.894L0,68.894Z" style="fill:white;fill-rule:nonzero;"/>
        </g>
        <g transform="matrix(1,0,0,1,697.961,604.424)">
            <path d="M0,-204.216L-53.048,-20.238L-133.403,-303.753L-245.596,-303.753L-104.596,99.537L3.048,99.537L110.388,-204.216L0,-204.216Z" style="fill:white;fill-rule:nonzero;"/>
        </g>
    </g>
</svg>
